# xmcd CD database file
#
# Track frame offsets:
#	150
#	22725
#	45745
#	62780
#	86632
#	99477
#	119520
#	138510
#	155550
#	176587
#	193525
#	211080
#	231797
#
# Disc length: 3332 seconds
#
# Revision: 0
# Processed by: cddbd v1.5.1PL2 Copyright (c) Steve Scherf et al.
# Submitted via: CDex 1.40Release
#
DISCID=ab0d020d
DTITLE=Roger Humphries and Bite The Bullet - for your ears only
DYEAR=1996
DGENRE=Country
TTITLE0=Not fade away
TTITLE1=Different ways to sing the blues
TTITLE2=You've gone again
TTITLE3=We're gonna have a party
TTITLE4=I can't stand it
TTITLE5=Drift away
TTITLE6=Love has no pride
TTITLE7=Don't lie to me
TTITLE8=Take it easy
TTITLE9=Always late
TTITLE10=The fool you left behind
TTITLE11=Play no games
TTITLE12=Reprise
EXTD=YEAR: 1996 ID3G: 2
EXTT0=
EXTT1=
EXTT2=
EXTT3=
EXTT4=
EXTT5=
EXTT6=
EXTT7=
EXTT8=
EXTT9=
EXTT10=
EXTT11=
EXTT12=
PLAYORDER=
